<svg width="32" height="32" viewBox="0 0 32 32" fill="none" xmlns="http://www.w3.org/2000/svg">
<path d="M31.1449 22.9618C31.1449 22.8397 31.1449 22.7175 31.0228 22.7175C31.0228 22.5954 30.9007 22.5954 30.9007 22.4733C30.7785 22.3511 30.7785 22.3511 30.6564 22.3511L18.1984 16.1221C17.8319 16 17.4655 16 17.2213 16.1221C16.977 16.3664 16.7327 16.6107 16.7327 16.9771V22.1069H15.9999L1.70979 15.0229C1.34338 14.9007 0.976966 14.9007 0.732691 15.0229C0.488416 15.2672 0.244141 15.5114 0.244141 15.8778V26.2595C0.244141 26.7481 0.488416 27.1145 0.976966 27.2366L15.5113 32C15.6335 32 15.7556 32 15.8777 32C15.9999 32 16.122 32 16.2442 32L30.7785 27.2366C31.1449 27.1145 31.5113 26.7481 31.5113 26.2595V22.9618C31.2671 22.9618 31.2671 22.9618 31.1449 22.9618C31.2671 22.9618 31.2671 22.9618 31.1449 22.9618ZM18.6869 18.4427L25.893 21.9847H18.6869V18.4427ZM2.19834 17.5878L14.6564 23.6946V29.6794L2.19834 25.5267V17.5878ZM29.1907 25.5267L16.7327 29.6794V24.0611H17.7098H29.1907V25.5267Z" fill="#80CBB4"/>
<path d="M30.5344 4.76336L16 0C16 0 16 0 15.8779 0H15.7557H15.6336H15.5115H15.3893C15.3893 0 15.3893 0 15.2672 0L0.732825 4.76336C0.366413 4.8855 0 5.25191 0 5.74046V9.03817C0 9.03817 0 9.03817 0 9.16031C0 9.16031 0 9.16031 0 9.28245C0 9.40459 0 9.52672 0.122138 9.52672C0.122138 9.64886 0.244275 9.64886 0.244275 9.771C0.366413 9.89314 0.366413 9.89314 0.48855 9.89314L12.9466 16.1222C13.0687 16.2443 13.1909 16.2443 13.4351 16.2443C13.6794 16.2443 13.8015 16.2443 13.9237 16.1222C14.168 15.8779 14.4122 15.6336 14.4122 15.2672V10.1374H15.1451L29.4351 17.2214C29.5573 17.3435 29.6794 17.3435 29.9237 17.3435C30.168 17.3435 30.2901 17.3435 30.4122 17.2214C30.6565 16.9771 30.9008 16.7328 30.9008 16.3664V5.98474C31.2672 5.25191 30.9008 4.8855 30.5344 4.76336ZM2.19848 6.35115L14.6565 2.19847V7.8168H13.6794H2.19848V6.35115ZM12.7023 13.4351L5.49619 9.89314H12.7023V13.4351ZM29.1909 14.4122L16.7328 8.30535V2.32061L29.1909 6.47329V14.4122Z" fill="#80CBB4"/>
</svg>
